<svg xmlns="http://www.w3.org/2000/svg" width="512" height="512" viewBox="0 0 512 512">
  <defs>
    <radialGradient id="bg" cx="50%" cy="38%" r="85%">
      <stop offset="0%" stop-color="#16203a"/>
      <stop offset="55%" stop-color="#0a0e1b"/>
      <stop offset="100%" stop-color="#04050a"/>
    </radialGradient>
    <linearGradient id="orbit" x1="0" y1="0" x2="1" y2="1">
      <stop offset="0%" stop-color="#42ecff"/>
      <stop offset="48%" stop-color="#5b8cff"/>
      <stop offset="100%" stop-color="#b86bff"/>
    </linearGradient>
    <radialGradient id="ambient" cx="50%" cy="50%" r="50%">
      <stop offset="0%" stop-color="#3a6bff" stop-opacity="0.33"/>
      <stop offset="60%" stop-color="#3a6bff" stop-opacity="0.07"/>
      <stop offset="100%" stop-color="#3a6bff" stop-opacity="0"/>
    </radialGradient>
    <radialGradient id="nuc" cx="50%" cy="50%" r="50%">
      <stop offset="0%" stop-color="#ffffff"/>
      <stop offset="32%" stop-color="#dffaff"/>
      <stop offset="64%" stop-color="#46d8ff" stop-opacity="0.45"/>
      <stop offset="100%" stop-color="#46d8ff" stop-opacity="0"/>
    </radialGradient>
    <radialGradient id="enCy" cx="50%" cy="50%" r="50%">
      <stop offset="0%" stop-color="#d6fbff"/><stop offset="42%" stop-color="#42ecff"/>
      <stop offset="100%" stop-color="#42ecff" stop-opacity="0"/>
    </radialGradient>
    <radialGradient id="enBl" cx="50%" cy="50%" r="50%">
      <stop offset="0%" stop-color="#cfe0ff"/><stop offset="42%" stop-color="#6f93ff"/>
      <stop offset="100%" stop-color="#6f93ff" stop-opacity="0"/>
    </radialGradient>
    <radialGradient id="enPu" cx="50%" cy="50%" r="50%">
      <stop offset="0%" stop-color="#f0d6ff"/><stop offset="42%" stop-color="#c46bff"/>
      <stop offset="100%" stop-color="#c46bff" stop-opacity="0"/>
    </radialGradient>
  </defs>

  <rect width="512" height="512" fill="url(#bg)"/>
  <circle cx="256" cy="206" r="212" fill="url(#ambient)"/>

  <g fill="none" stroke="url(#orbit)" stroke-linecap="round">
    <g stroke-width="22" stroke-opacity="0.16">
      <ellipse cx="256" cy="206" rx="162" ry="60" transform="rotate(0 256 206)"/>
      <ellipse cx="256" cy="206" rx="162" ry="60" transform="rotate(60 256 206)"/>
      <ellipse cx="256" cy="206" rx="162" ry="60" transform="rotate(120 256 206)"/>
    </g>
    <g stroke-width="9">
      <ellipse cx="256" cy="206" rx="162" ry="60" transform="rotate(0 256 206)"/>
      <ellipse cx="256" cy="206" rx="162" ry="60" transform="rotate(60 256 206)"/>
      <ellipse cx="256" cy="206" rx="162" ry="60" transform="rotate(120 256 206)"/>
    </g>
  </g>

  <g transform="rotate(0 256 206)"><circle cx="418" cy="206" r="27" fill="url(#enCy)"/><circle cx="418" cy="206" r="10" fill="#e6fdff"/></g>
  <g transform="rotate(60 256 206)"><circle cx="418" cy="206" r="27" fill="url(#enBl)"/><circle cx="418" cy="206" r="10" fill="#eef3ff"/></g>
  <g transform="rotate(120 256 206)"><circle cx="418" cy="206" r="27" fill="url(#enPu)"/><circle cx="418" cy="206" r="10" fill="#f6e9ff"/></g>

  <circle cx="256" cy="206" r="34" fill="#0a0e1b"/>
  <circle cx="256" cy="206" r="52" fill="url(#nuc)"/>
  <circle cx="256" cy="206" r="17" fill="#ffffff"/>

  <text x="256" y="452" text-anchor="middle" font-family="Arial, 'Helvetica Neue', Helvetica, sans-serif" font-size="78" font-weight="700" letter-spacing="3" fill="#eaf6ff">news</text>
</svg>
